<svg xmlns="http://www.w3.org/2000/svg" width="528" height="264" fill="none" viewBox="0 0 528 264"><path fill="#EBD511" fill-opacity=".51" d="M88 88L107.757 148.807H171.693L119.968 186.387L139.725 247.193L88 209.613L36.2749 247.193L56.0321 186.387L4.30703 148.807H68.2428L88 88Z"/><path fill="#EBD511" fill-opacity=".51" d="M264 0L283.757 60.8065H347.693L295.968 98.387L315.725 159.193L264 121.613L212.275 159.193L232.032 98.387L180.307 60.8065H244.243L264 0Z"/><path fill="#EBD511" fill-opacity=".51" d="M440 88L459.757 148.807H523.693L471.968 186.387L491.725 247.193L440 209.613L388.275 247.193L408.032 186.387L356.307 148.807H420.243L440 88Z"/><path fill="#000" d="M59.4375 155.281H41.4375V167.469H62.5625V175H32.0625V129.5H62.5V137.094H41.4375V147.938H59.4375V155.281ZM86.4688 149.656C85.2396 149.49 84.1562 149.406 83.2188 149.406C79.8021 149.406 77.5625 150.562 76.5 152.875V175H67.4688V141.188H76L76.25 145.219C78.0625 142.115 80.5729 140.562 83.7812 140.562C84.7812 140.562 85.7188 140.698 86.5938 140.969L86.4688 149.656ZM105.781 175.625C100.823 175.625 96.7812 174.104 93.6562 171.062C90.5521 168.021 89 163.969 89 158.906V158.031C89 154.635 89.6562 151.604 90.9688 148.938C92.2812 146.25 94.1354 144.188 96.5312 142.75C98.9479 141.292 101.698 140.562 104.781 140.562C109.406 140.562 113.042 142.021 115.688 144.938C118.354 147.854 119.688 151.99 119.688 157.344V161.031H98.1562C98.4479 163.24 99.3229 165.01 100.781 166.344C102.26 167.677 104.125 168.344 106.375 168.344C109.854 168.344 112.573 167.083 114.531 164.562L118.969 169.531C117.615 171.448 115.781 172.948 113.469 174.031C111.156 175.094 108.594 175.625 105.781 175.625ZM104.75 147.875C102.958 147.875 101.5 148.479 100.375 149.688C99.2708 150.896 98.5625 152.625 98.25 154.875H110.812V154.156C110.771 152.156 110.229 150.615 109.188 149.531C108.146 148.427 106.667 147.875 104.75 147.875ZM143.156 165.656C143.156 164.552 142.604 163.688 141.5 163.062C140.417 162.417 138.667 161.844 136.25 161.344C128.208 159.656 124.188 156.24 124.188 151.094C124.188 148.094 125.427 145.594 127.906 143.594C130.406 141.573 133.667 140.562 137.688 140.562C141.979 140.562 145.406 141.573 147.969 143.594C150.552 145.615 151.844 148.24 151.844 151.469H142.812C142.812 150.177 142.396 149.115 141.562 148.281C140.729 147.427 139.427 147 137.656 147C136.135 147 134.958 147.344 134.125 148.031C133.292 148.719 132.875 149.594 132.875 150.656C132.875 151.656 133.344 152.469 134.281 153.094C135.24 153.698 136.844 154.229 139.094 154.688C141.344 155.125 143.24 155.625 144.781 156.188C149.552 157.938 151.938 160.969 151.938 165.281C151.938 168.365 150.615 170.865 147.969 172.781C145.323 174.677 141.906 175.625 137.719 175.625C134.885 175.625 132.365 175.125 130.156 174.125C127.969 173.104 126.25 171.719 125 169.969C123.75 168.198 123.125 166.292 123.125 164.25H131.688C131.771 165.854 132.365 167.083 133.469 167.938C134.573 168.792 136.052 169.219 137.906 169.219C139.635 169.219 140.938 168.896 141.812 168.25C142.708 167.583 143.156 166.719 143.156 165.656ZM189.281 175.625C184.323 175.625 180.281 174.104 177.156 171.062C174.052 168.021 172.5 163.969 172.5 158.906V158.031C172.5 154.635 173.156 151.604 174.469 148.938C175.781 146.25 177.635 144.188 180.031 142.75C182.448 141.292 185.198 140.562 188.281 140.562C192.906 140.562 196.542 142.021 199.188 144.938C201.854 147.854 203.188 151.99 203.188 157.344V161.031H181.656C181.948 163.24 182.823 165.01 184.281 166.344C185.76 167.677 187.625 168.344 189.875 168.344C193.354 168.344 196.073 167.083 198.031 164.562L202.469 169.531C201.115 171.448 199.281 172.948 196.969 174.031C194.656 175.094 192.094 175.625 189.281 175.625ZM188.25 147.875C186.458 147.875 185 148.479 183.875 149.688C182.771 150.896 182.062 152.625 181.75 154.875H194.312V154.156C194.271 152.156 193.729 150.615 192.688 149.531C191.646 148.427 190.167 147.875 188.25 147.875ZM217.875 175H208.812V127H217.875V175ZM277.875 169.25C276.188 171.271 273.802 172.844 270.719 173.969C267.635 175.073 264.219 175.625 260.469 175.625C256.531 175.625 253.073 174.771 250.094 173.062C247.135 171.333 244.844 168.833 243.219 165.562C241.615 162.292 240.792 158.448 240.75 154.031V150.938C240.75 146.396 241.51 142.469 243.031 139.156C244.573 135.823 246.781 133.281 249.656 131.531C252.552 129.76 255.938 128.875 259.812 128.875C265.208 128.875 269.427 130.167 272.469 132.75C275.51 135.312 277.312 139.052 277.875 143.969H268.75C268.333 141.365 267.406 139.458 265.969 138.25C264.552 137.042 262.594 136.438 260.094 136.438C256.906 136.438 254.479 137.635 252.812 140.031C251.146 142.427 250.302 145.99 250.281 150.719V153.625C250.281 158.396 251.188 162 253 164.438C254.812 166.875 257.469 168.094 260.969 168.094C264.49 168.094 267 167.344 268.5 165.844V158H259.969V151.094H277.875V169.25ZM304.5 175C304.083 174.188 303.781 173.177 303.594 171.969C301.406 174.406 298.562 175.625 295.062 175.625C291.75 175.625 289 174.667 286.812 172.75C284.646 170.833 283.562 168.417 283.562 165.5C283.562 161.917 284.885 159.167 287.531 157.25C290.198 155.333 294.042 154.365 299.062 154.344H303.219V152.406C303.219 150.844 302.812 149.594 302 148.656C301.208 147.719 299.948 147.25 298.219 147.25C296.698 147.25 295.5 147.615 294.625 148.344C293.771 149.073 293.344 150.073 293.344 151.344H284.312C284.312 149.385 284.917 147.573 286.125 145.906C287.333 144.24 289.042 142.938 291.25 142C293.458 141.042 295.938 140.562 298.688 140.562C302.854 140.562 306.156 141.615 308.594 143.719C311.052 145.802 312.281 148.74 312.281 152.531V167.188C312.302 170.396 312.75 172.823 313.625 174.469V175H304.5ZM297.031 168.719C298.365 168.719 299.594 168.427 300.719 167.844C301.844 167.24 302.677 166.438 303.219 165.438V159.625H299.844C295.323 159.625 292.917 161.188 292.625 164.312L292.594 164.844C292.594 165.969 292.99 166.896 293.781 167.625C294.573 168.354 295.656 168.719 297.031 168.719ZM327.531 141.188L327.812 145.094C330.229 142.073 333.469 140.562 337.531 140.562C341.115 140.562 343.781 141.615 345.531 143.719C347.281 145.823 348.177 148.969 348.219 153.156V175H339.188V153.375C339.188 151.458 338.771 150.073 337.938 149.219C337.104 148.344 335.719 147.906 333.781 147.906C331.24 147.906 329.333 148.99 328.062 151.156V175H319.031V141.188H327.531ZM374.688 175C374.271 174.188 373.969 173.177 373.781 171.969C371.594 174.406 368.75 175.625 365.25 175.625C361.938 175.625 359.188 174.667 357 172.75C354.833 170.833 353.75 168.417 353.75 165.5C353.75 161.917 355.073 159.167 357.719 157.25C360.385 155.333 364.229 154.365 369.25 154.344H373.406V152.406C373.406 150.844 373 149.594 372.188 148.656C371.396 147.719 370.135 147.25 368.406 147.25C366.885 147.25 365.688 147.615 364.812 148.344C363.958 149.073 363.531 150.073 363.531 151.344H354.5C354.5 149.385 355.104 147.573 356.312 145.906C357.521 144.24 359.229 142.938 361.438 142C363.646 141.042 366.125 140.562 368.875 140.562C373.042 140.562 376.344 141.615 378.781 143.719C381.24 145.802 382.469 148.74 382.469 152.531V167.188C382.49 170.396 382.938 172.823 383.812 174.469V175H374.688ZM367.219 168.719C368.552 168.719 369.781 168.427 370.906 167.844C372.031 167.24 372.865 166.438 373.406 165.438V159.625H370.031C365.51 159.625 363.104 161.188 362.812 164.312L362.781 164.844C362.781 165.969 363.177 166.896 363.969 167.625C364.76 168.354 365.844 168.719 367.219 168.719ZM388 157.844C388 152.573 389.177 148.375 391.531 145.25C393.906 142.125 397.146 140.562 401.25 140.562C404.542 140.562 407.26 141.792 409.406 144.25V127H418.469V175H410.312L409.875 171.406C407.625 174.219 404.729 175.625 401.188 175.625C397.208 175.625 394.01 174.062 391.594 170.938C389.198 167.792 388 163.427 388 157.844ZM397.031 158.5C397.031 161.667 397.583 164.094 398.688 165.781C399.792 167.469 401.396 168.312 403.5 168.312C406.292 168.312 408.26 167.135 409.406 164.781V151.438C408.281 149.083 406.333 147.906 403.562 147.906C399.208 147.906 397.031 151.438 397.031 158.5ZM424.062 157.781C424.062 154.427 424.708 151.438 426 148.812C427.292 146.188 429.146 144.156 431.562 142.719C434 141.281 436.823 140.562 440.031 140.562C444.594 140.562 448.312 141.958 451.188 144.75C454.083 147.542 455.698 151.333 456.031 156.125L456.094 158.438C456.094 163.625 454.646 167.792 451.75 170.938C448.854 174.062 444.969 175.625 440.094 175.625C435.219 175.625 431.323 174.062 428.406 170.938C425.51 167.812 424.062 163.562 424.062 158.188V157.781ZM433.094 158.438C433.094 161.646 433.698 164.104 434.906 165.812C436.115 167.5 437.844 168.344 440.094 168.344C442.281 168.344 443.99 167.51 445.219 165.844C446.448 164.156 447.062 161.469 447.062 157.781C447.062 154.635 446.448 152.198 445.219 150.469C443.99 148.74 442.26 147.875 440.031 147.875C437.823 147.875 436.115 148.74 434.906 150.469C433.698 152.177 433.094 154.833 433.094 158.438ZM480.656 149.656C479.427 149.49 478.344 149.406 477.406 149.406C473.99 149.406 471.75 150.562 470.688 152.875V175H461.656V141.188H470.188L470.438 145.219C472.25 142.115 474.76 140.562 477.969 140.562C478.969 140.562 479.906 140.698 480.781 140.969L480.656 149.656ZM494.219 161.031H486.719L485.656 129.5H495.281L494.219 161.031ZM490.469 165.969C491.99 165.969 493.208 166.417 494.125 167.312C495.062 168.208 495.531 169.354 495.531 170.75C495.531 172.125 495.062 173.26 494.125 174.156C493.208 175.052 491.99 175.5 490.469 175.5C488.969 175.5 487.75 175.052 486.812 174.156C485.896 173.26 485.438 172.125 485.438 170.75C485.438 169.375 485.896 168.24 486.812 167.344C487.75 166.427 488.969 165.969 490.469 165.969Z"/></svg>