<svg xmlns="http://www.w3.org/2000/svg" width="485" height="80" fill="none" viewBox="0 0 485 80"><rect width="40" height="40" fill="#000"/><rect width="40" height="40" x="121" fill="#fff"/><rect width="40" height="40" x="243" fill="#000"/><rect width="40" height="40" x="364" fill="#fff"/><rect width="40" height="40" x="40" fill="#fff"/><rect width="40" height="40" x="161" fill="#000"/><rect width="40" height="40" x="283" fill="#fff"/><rect width="40" height="40" x="404" fill="#000"/><rect width="40" height="40" x="81" fill="#000"/><rect width="40" height="40" x="202" fill="#fff"/><rect width="40" height="40" x="324" fill="#000"/><rect width="40" height="40" x="445" fill="#fff"/><rect width="40" height="40" y="40" fill="#fff"/><rect width="40" height="40" x="121" y="40" fill="#000"/><rect width="40" height="40" x="243" y="40" fill="#fff"/><rect width="40" height="40" x="364" y="40" fill="#000"/><rect width="40" height="40" x="40" y="40" fill="#000"/><rect width="40" height="40" x="161" y="40" fill="#fff"/><rect width="40" height="40" x="283" y="40" fill="#000"/><rect width="40" height="40" x="404" y="40" fill="#fff"/><rect width="40" height="40" x="81" y="40" fill="#fff"/><rect width="40" height="40" x="202" y="40" fill="#000"/><rect width="40" height="40" x="324" y="40" fill="#fff"/><rect width="40" height="40" x="445" y="40" fill="#000"/></svg>