<svg width="485" height="80" viewBox="0 0 485 80" fill="none" xmlns="http://www.w3.org/2000/svg">
<rect width="40" height="40" fill="black"/>
<rect x="121" width="40" height="40" fill="white"/>
<rect x="243" width="40" height="40" fill="black"/>
<rect x="364" width="40" height="40" fill="white"/>
<rect x="40" width="40" height="40" fill="white"/>
<rect x="161" width="40" height="40" fill="black"/>
<rect x="283" width="40" height="40" fill="white"/>
<rect x="404" width="40" height="40" fill="black"/>
<rect x="81" width="40" height="40" fill="black"/>
<rect x="202" width="40" height="40" fill="white"/>
<rect x="324" width="40" height="40" fill="black"/>
<rect x="445" width="40" height="40" fill="white"/>
<rect y="40" width="40" height="40" fill="white"/>
<rect x="121" y="40" width="40" height="40" fill="black"/>
<rect x="243" y="40" width="40" height="40" fill="white"/>
<rect x="364" y="40" width="40" height="40" fill="black"/>
<rect x="40" y="40" width="40" height="40" fill="black"/>
<rect x="161" y="40" width="40" height="40" fill="white"/>
<rect x="283" y="40" width="40" height="40" fill="black"/>
<rect x="404" y="40" width="40" height="40" fill="white"/>
<rect x="81" y="40" width="40" height="40" fill="white"/>
<rect x="202" y="40" width="40" height="40" fill="black"/>
<rect x="324" y="40" width="40" height="40" fill="white"/>
<rect x="445" y="40" width="40" height="40" fill="black"/>
</svg>
